<svg height="60" viewBox="0 0 60 60" width="60" xmlns="http://www.w3.org/2000/svg"><path d="m30 0c-16.5414669 0-30 13.4585331-30 30s13.4585331 30 30 30 30-13.4585331 30-30-13.4585331-30-30-30zm0 4.61538462c14.0444723 0 25.3846154 11.34014538 25.3846154 25.38461538 0 14.0444723-11.3401431 25.3846154-25.3846154 25.3846154-14.04447 0-25.38461538-11.3401431-25.38461538-25.3846154 0-14.04447 11.34014538-25.38461538 25.38461538-25.38461538zm-8.7259615 13.34134618-3.3173077 3.3173077 8.7259615 8.7259615-8.7259615 8.7259615 3.3173077 3.3173077 8.7259615-8.7259615 8.7259615 8.7259615 3.3173077-3.3173077-8.7259615-8.7259615 8.7259615-8.7259615-3.3173077-3.3173077-8.7259615 8.7259615z" fill="#8a0000"/></svg>