<svg height="28" viewBox="0 0 28 28" width="28" xmlns="http://www.w3.org/2000/svg"><g fill="none" fill-rule="evenodd"><path d="m0 0h28v28h-28z"/><path d="m16.71875 1c-5.511719 0-10 4.488281-10 10 0 2.394531.839844 4.589844 2.25 6.3125l-7.96875 7.96875 1.4375 1.4375 7.96875-7.96875c1.722656 1.410156 3.917969 2.25 6.3125 2.25 5.511719 0 10-4.488281 10-10s-4.488281-10-10-10zm0 2c4.429688 0 8 3.570313 8 8 0 4.429688-3.570312 8-8 8-4.429687 0-8-3.570312-8-8 0-4.429687 3.570313-8 8-8z" fill="#008a23" fill-rule="nonzero"/></g></svg>