<svg height="60" viewBox="0 0 61 60" width="61" xmlns="http://www.w3.org/2000/svg"><path d="m30 0c-16.6135823 0-30 13.3864177-30 30s13.3864177 30 30 30 30-13.3864177 30-30c0-3.2271623-.4326923-6.4453131-1.5865385-9.4471154l-3.75 3.6778846c.4597362 1.8479562.7211539 3.6959146.7211539 5.7692308 0 14.08053-11.3040854 25.3846154-25.3846154 25.3846154-14.0805277 0-25.38461538-11.3040854-25.38461538-25.3846154 0-14.0805277 11.30408768-25.38461538 25.38461538-25.38461538 6.9230769 0 13.14303 2.75841461 17.5240385 7.13942308l3.2451923-3.24519232c-5.3094946-5.30949461-12.6923077-8.50961538-20.7692308-8.50961538zm26.0336538 9.87980769-26.0336538 26.03365381-9.8798077-9.8798077-3.3173077 3.3173077 11.5384616 11.5384616 1.6586538 1.5865384 1.6586538-1.5865384 27.6923077-27.6923077z" fill="#008a23" transform="translate(.5)"/></svg>