<svg width="168" height="80" viewBox="0 0 168 80" fill="none" xmlns="http://www.w3.org/2000/svg">
<path fill-rule="evenodd" clip-rule="evenodd" d="M38.5854 24.609L26.4044 36.8188L18.0001 34.9304L28.2927 24.609L36.6643 16.3283C37.3766 15.6237 38.5854 16.1283 38.5854 17.1301V24.609ZM28.2931 45.194L38.5857 34.9302V24.6087L26.6459 36.5773L28.2931 45.194Z" fill="url(#paint0_linear_2660_7590)"/>
<path fill-rule="evenodd" clip-rule="evenodd" d="M28.2934 55.429V45.1367L38.586 34.8441L42.5367 41.1857L42.6889 41.0335L48.8783 45.1367L30.2157 63.6701C29.5041 64.3768 28.2931 63.8728 28.2931 62.8698V55.4293L28.2934 55.429Z" fill="url(#paint1_linear_2660_7590)"/>
<path d="M18 34.9307H24.1786C26.4507 34.9307 28.2926 36.7726 28.2926 39.0447V45.194H22.114C19.8419 45.194 18 43.3521 18 41.08V34.9307Z" fill="#8C8CFF"/>
<path d="M38.5854 34.9307H44.7641C47.0362 34.9307 48.8781 36.7726 48.8781 39.0447V45.194H42.6995C40.4274 45.194 38.5854 43.3521 38.5854 41.08V34.9307Z" fill="#8C8CFF"/>
<g clip-path="url(#clip0_2660_7590)">
<path d="M80.7307 50.0298V25.3529C80.7307 25.2682 80.7639 25.187 80.8231 25.1265C80.8824 25.066 80.963 25.0312 81.0476 25.0295H84.0287C84.1145 25.0295 84.1967 25.0636 84.2574 25.1242C84.318 25.1849 84.3521 25.2671 84.3521 25.3529V50.0298C84.3504 50.115 84.3158 50.1963 84.2555 50.2566C84.1952 50.3169 84.114 50.3515 84.0287 50.3531H81.054C80.9683 50.3531 80.8861 50.319 80.8254 50.2584C80.7648 50.1978 80.7307 50.1155 80.7307 50.0298Z" fill="#6E66FA"/>
<path d="M105.627 35.8614C104.837 34.4491 103.682 33.2745 102.284 32.4599C100.815 31.6457 99.1623 31.2186 97.4824 31.2186C95.8025 31.2186 94.1503 31.6457 92.6809 32.4599C91.2801 33.2736 90.1233 34.4483 89.3311 35.8614C88.4984 37.3658 88.0768 39.0632 88.1089 40.7825C88.0751 42.5061 88.4967 44.2081 89.3311 45.7166C90.1233 47.1297 91.2801 48.3044 92.6809 49.1181C94.1503 49.9322 95.8025 50.3594 97.4824 50.3594C99.1623 50.3594 100.815 49.9322 102.284 49.1181C103.682 48.3035 104.837 47.1289 105.627 45.7166C106.464 44.2135 106.888 42.5156 106.856 40.7955C106.892 39.0708 106.468 37.3675 105.627 35.8614ZM102.478 43.99C102.012 44.9069 101.309 45.6819 100.441 46.2339C99.5605 46.7873 98.5383 47.0726 97.4986 47.0552C96.453 47.0708 95.425 46.7858 94.5368 46.2339C93.6623 45.6861 92.9536 44.9104 92.4869 43.99C91.9808 42.9899 91.7403 41.8765 91.7885 40.7567C91.7397 39.6368 91.9802 38.5232 92.4869 37.5233C92.9536 36.6029 93.6623 35.8272 94.5368 35.2794C95.4299 34.7482 96.4498 34.4678 97.4889 34.4678C98.528 34.4678 99.5478 34.7482 100.441 35.2794C101.311 35.8232 102.015 36.5947 102.478 37.5104C102.975 38.5136 103.215 39.6247 103.176 40.7437C103.22 41.8673 102.98 42.9838 102.478 43.99Z" fill="#6E66FA"/>
<path d="M127.873 35.829C127.174 34.4503 126.118 33.2845 124.814 32.4534C123.491 31.6226 121.954 31.1956 120.391 31.2247C119.38 31.2226 118.38 31.4318 117.455 31.8391C116.56 32.2161 115.742 32.7554 115.043 33.4299C114.803 33.6736 114.586 33.94 114.397 34.2253V31.6386C114.396 31.589 114.384 31.5402 114.362 31.4957C114.34 31.4513 114.308 31.4124 114.269 31.3819C114.23 31.3515 114.185 31.3302 114.136 31.3198C114.088 31.3094 114.037 31.3101 113.989 31.3217L111.027 32.1365C110.958 32.1539 110.897 32.194 110.854 32.2503C110.811 32.3066 110.787 32.3759 110.788 32.4469V57.4084C110.788 57.4941 110.822 57.5764 110.883 57.637C110.943 57.6976 111.026 57.7317 111.111 57.7317H114.118C114.204 57.7317 114.286 57.6976 114.347 57.637C114.408 57.5764 114.442 57.4941 114.442 57.4084V47.5273C114.578 47.6825 114.668 47.8377 114.83 47.9929C115.583 48.7023 116.46 49.2678 117.416 49.6613C118.404 50.0917 119.469 50.3119 120.546 50.3079C122.09 50.3304 123.607 49.8962 124.905 49.0599C126.204 48.2131 127.254 47.0342 127.944 45.6454C128.706 44.1256 129.088 42.4435 129.057 40.7437C129.074 39.0328 128.668 37.3442 127.873 35.829ZM124.782 43.9512C124.322 44.8547 123.63 45.6201 122.777 46.1693C121.914 46.7111 120.912 46.9897 119.893 46.9711C118.864 46.9915 117.851 46.713 116.977 46.1693C116.127 45.6171 115.436 44.8525 114.972 43.9512C114.477 42.9583 114.233 41.8593 114.261 40.7502C114.241 39.6389 114.494 38.5397 114.998 37.5492C115.453 36.6603 116.136 35.9083 116.977 35.3699C117.855 34.8361 118.866 34.5625 119.893 34.5809C120.923 34.5561 121.938 34.8302 122.816 35.3699C123.661 35.9142 124.346 36.6729 124.801 37.5686C125.294 38.5555 125.541 39.6472 125.519 40.7502C125.539 41.8614 125.286 42.9606 124.782 43.9512Z" fill="#6E66FA"/>
<path d="M67.183 50.3466C65.3482 50.3488 63.5363 49.94 61.8803 49.1503C60.3793 48.3227 59.0771 47.1773 58.0649 45.7941C58.0131 45.7351 57.9845 45.6592 57.9845 45.5807C57.9845 45.5021 58.0131 45.4263 58.0649 45.3673L60.0631 43.3691C60.0962 43.3375 60.1355 43.3132 60.1784 43.2976C60.2214 43.282 60.2671 43.2756 60.3127 43.2786C60.3583 43.2816 60.4028 43.2941 60.4433 43.3153C60.4839 43.3364 60.5195 43.3657 60.5481 43.4014C61.4406 44.4727 62.5404 45.3525 63.7815 45.9881C64.9246 46.6452 66.227 46.9742 67.5451 46.9387C68.3723 46.9479 69.1942 46.8054 69.9701 46.5183C70.632 46.2806 71.2234 45.8803 71.6902 45.3543C72.1064 44.8906 72.3367 44.2896 72.3369 43.6665C72.3412 43.2633 72.2733 42.8625 72.1364 42.4831C71.9947 42.103 71.7743 41.757 71.4898 41.4679C71.1569 41.1335 70.778 40.8482 70.3646 40.6207C69.854 40.3293 69.317 40.0868 68.7608 39.8965C68.07 39.6803 67.3658 39.5096 66.6527 39.3856C65.5169 39.1708 64.4086 38.8303 63.3482 38.3703C62.4732 37.9907 61.6754 37.4537 60.9943 36.786C60.3764 36.1743 59.8958 35.438 59.5846 34.6261C59.2712 33.7532 59.1178 32.831 59.1319 31.9036C59.1123 30.6275 59.5071 29.3795 60.2571 28.3469C61.0461 27.2935 62.0928 26.4607 63.2965 25.9284C64.6471 25.3107 66.1183 25.0014 67.6033 25.0231C69.3261 24.9827 71.0328 25.3622 72.5762 26.1289C73.8867 26.8216 74.9994 27.8364 75.8095 29.0777C75.8527 29.1402 75.8725 29.216 75.8654 29.2917C75.8584 29.3674 75.8248 29.4381 75.7707 29.4915L73.7661 31.4898C73.7325 31.5238 73.6918 31.55 73.6469 31.5665C73.602 31.583 73.554 31.5892 73.5064 31.5849C73.4587 31.5806 73.4127 31.5657 73.3715 31.5415C73.3303 31.5172 73.295 31.4841 73.2681 31.4445C72.5744 30.5903 71.7197 29.8806 70.7526 29.3557C69.785 28.7462 68.6627 28.4275 67.5192 28.4375C66.7012 28.4193 65.8878 28.5644 65.1266 28.8643C64.4903 29.1016 63.9312 29.5086 63.5099 30.0412C63.1205 30.5487 62.9153 31.1735 62.9279 31.8131C62.9222 32.2784 63.0171 32.7394 63.2059 33.1646C63.4056 33.5915 63.7023 33.9658 64.0725 34.2575C64.5453 34.6219 65.0737 34.908 65.6374 35.1046C66.4043 35.3803 67.1912 35.5965 67.9913 35.7513C69.1712 36.0009 70.3251 36.3602 71.438 36.8248C72.3696 37.2084 73.2408 37.7246 74.0247 38.3574C74.6849 38.8873 75.2286 39.5478 75.622 40.2974C75.9863 41.0282 76.1724 41.8348 76.1652 42.6513C76.2016 44.0874 75.8245 45.5038 75.0788 46.7317C74.3271 47.8988 73.2504 48.8205 71.9812 49.3831C70.4719 50.0526 68.8337 50.3816 67.183 50.3466Z" fill="#6E66FA"/>
<path d="M148.928 36.5596C148.541 35.5087 147.945 34.5473 147.176 33.7337C146.412 32.941 145.5 32.3061 144.492 31.8648C143.443 31.402 142.308 31.1683 141.162 31.1793C139.872 31.1673 138.593 31.4113 137.398 31.8971C136.272 32.3548 135.255 33.0469 134.417 33.9277C133.579 34.8298 132.921 35.8833 132.477 37.0317C131.998 38.2954 131.761 39.638 131.779 40.9893C131.744 42.6839 132.171 44.356 133.014 45.8264C133.838 47.2222 135.028 48.3669 136.454 49.1373C138.813 50.3727 141.551 50.6751 144.124 49.9845C145.019 49.744 145.886 49.408 146.71 48.9821C147.381 48.6344 148.003 48.1996 148.56 47.6888C148.615 47.6333 148.649 47.5603 148.656 47.4824C148.663 47.4045 148.643 47.3265 148.598 47.262L147.143 45.2185C147.117 45.1829 147.083 45.1531 147.045 45.1309C147.006 45.1086 146.964 45.0943 146.92 45.0889C146.876 45.0834 146.831 45.087 146.788 45.0992C146.746 45.1115 146.706 45.1323 146.671 45.1603C145.993 45.7501 145.224 46.2282 144.395 46.5765C143.585 46.8898 142.722 47.0456 141.854 47.0356C140.676 47.0592 139.511 46.7951 138.459 46.2661C137.502 45.7716 136.709 45.0101 136.176 44.0739C135.763 43.3201 135.506 42.4911 135.419 41.636H149.18C149.265 41.6344 149.345 41.6007 149.405 41.5418C149.465 41.4829 149.501 41.4032 149.504 41.3191V40.0969C149.538 38.8919 149.343 37.6915 148.928 36.5596ZM135.536 38.7841C135.633 38.281 135.794 37.7921 136.014 37.3291C136.422 36.4406 137.101 35.7047 137.954 35.2275C138.939 34.7211 140.036 34.4741 141.142 34.5097C141.896 34.5035 142.641 34.6761 143.316 35.0133C143.99 35.3506 144.575 35.8428 145.022 36.4497C145.465 37.0551 145.731 37.7714 145.792 38.519V38.7647L135.536 38.7841Z" fill="#6E66FA"/>
</g>
<defs>
<linearGradient id="paint0_linear_2660_7590" x1="28.2929" y1="16" x2="28.2929" y2="45.194" gradientUnits="userSpaceOnUse">
<stop stop-color="#747BFF"/>
<stop offset="1" stop-color="#C9CCFF"/>
</linearGradient>
<linearGradient id="paint1_linear_2660_7590" x1="38.5857" y1="34.8441" x2="38.5857" y2="64" gradientUnits="userSpaceOnUse">
<stop offset="0.260784" stop-color="#6E66FA"/>
<stop offset="1" stop-color="#3524DD"/>
</linearGradient>
<clipPath id="clip0_2660_7590">
<rect width="91.5102" height="32.7085" fill="white" transform="translate(58 25.0231)"/>
</clipPath>
</defs>
</svg>
