<svg height="44" viewBox="0 0 179 44" width="179" xmlns="http://www.w3.org/2000/svg"><g fill="none" fill-rule="evenodd"><path d="m20.0936843 20.6440463-11.9335781 2.1013647c-3.29311785.5796162-6.43445077-1.6159617-7.0149256-4.9052324l-1.05223885-5.960011c-.58047483-3.28927061 1.61835565-6.42493273 4.91249908-7.00454892l5.96781467-1.0517064c3.2941434-.57961619 6.4354763 1.61596173 7.0159511 4.90523239zm15.2293625-2.6811857-11.9325526 2.1013647-2.1044776-11.91592569c-.5804749-3.28824659 1.6193812-6.42390872 4.9135246-7.00454896l5.9678146-1.05068235c3.2941435-.58064024 6.4344508 1.61596174 7.0159512 4.90523239l1.0522389 5.95898691c.5804748 3.2892706-1.6183557 6.4259568-4.9124991 7.005573m-17.4568065 24.8933888-5.9678146 1.0506823c-3.29414343.5806402-6.43547635-1.6159617-7.01595119-4.9052324l-1.05326441-5.9589869c-.58047484-3.2892706 1.61938122-6.4249328 4.91352464-7.005573l11.93152696-2.1013647 2.1044777 11.9159257c.5804748 3.2882466-1.6183556 6.4249328-4.9124991 7.004549" fill="#fff"/><path d="m33.0919107 40.1757805c-3.2941434.5806402-6.4354763-1.6159617-7.0159512-4.9052324l-2.1044776-11.9138776 11.9325525-2.1013647c3.2941434-.5806402 6.4344508 1.6159618 7.0159512 4.9052324l1.0522388 5.9589869c.5804749 3.2892707-1.6183556 6.4259569-4.912499 7.0055731z" fill="#ff0"/><g fill="#fff" fill-rule="nonzero" transform="translate(60.065 14.01)"><path d="m3.45049554 15.9788048c-1.43577667 0-2.58594185-.3164884-3.45049554-.9494652l1.41261898-3.4504955c.46315376.3550845.98806136.5326268 1.57472279.5326268.46315377 0 .83753639-.1350865 1.12314788-.4052595.28561149-.2701731.42841723-.6445557.42841723-1.1231479v-10.32832893h4.37680306v10.46727503c0 1.7599843-.48631145 3.0761129-1.45893435 3.9483858-.97262291.872273-2.30804959 1.3084094-4.00628005 1.3084094zm18.66123706-1.5747228c-1.1578844 1.0498152-2.7171688 1.5747228-4.677853 1.5747228-1.9606843 0-3.5199686-.5249076-4.677853-1.5747228s-1.7368267-2.5010303-1.7368267-4.3536453v-9.79570213h4.4231185v9.81885973c0 .6484153.1736826 1.1540248.521048 1.5168286.3473653.3628038.8375364.5442057 1.4705132.5442057s1.1231478-.1814019 1.4705132-.5442057c.3473653-.3628038.5210479-.8684133.5210479-1.5168286v-9.81885973h4.4231185v9.77254443c0 1.852615-.5789422 3.3115494-1.7368266 4.376803zm8.7497465 1.5747228c-2.4701534 0-4.4385569-.6870114-5.9052105-2.0610342l2.0378766-3.3347071c1.0343767 1.0806921 2.3157688 1.6210382 3.8441762 1.6210382.4168384 0 .7564845-.0849116 1.0189383-.2547346.2624538-.1698231.3936807-.3936807.3936807-.671573 0-.2624538-.1698231-.490171-.5094692-.6831518-.3396461-.1929807-.7603441-.3550845-1.262094-.4863114-.5017499-.13122692-1.0498152-.32420765-1.6441958-.57894222-.5943807-.25473457-1.142446-.54420567-1.6441959-.86841331-.5017499-.32420763-.9224479-.80665947-1.262094-1.44735551s-.5094691-1.3933209-.5094691-2.25787459c0-1.34314592.5056095-2.50488994 1.5168285-3.48523207 1.0112191-.98034213 2.4199785-1.4705132 4.2262781-1.4705132 2.0996304 0 3.8518955.59438066 5.2567952 1.78314199l-1.9915611 3.24207634c-.9880614-.83367677-2.1305074-1.25051516-3.4273379-1.25051516-.741046 0-1.111569.27789226-1.111569.83367677 0 .24701534.1659634.470873.4978903.67157296.3319268.20069996.7526248.37052301 1.262094.50946914.5094691.13894613 1.0536748.33578648 1.632617.59052105s1.1231479.54806528 1.632617.87999215c.5094692.33192686.9301672.80665947 1.262094 1.42419782.3319269.61753835.4978903 1.33542664.4978903 2.15366504 0 1.5747228-.521048 2.8252379-1.5631439 3.7515454-1.042096.9263076-2.4585746 1.3894613-4.2494358 1.3894613z"/><path d="m44.497 15.701h-4.399v-11.625h-3.196v-3.821h10.768v3.821h-3.173z"/><path d="m58.249 15.701h-9.147v-15.446h4.377v11.625h4.77z"/><path d="m70.4263893 14.404082c-1.1578844 1.0498152-2.7171687 1.5747228-4.677853 1.5747228s-3.5199686-.5249076-4.677853-1.5747228-1.7368266-2.5010303-1.7368266-4.3536453v-9.79570213h4.4231184v9.81885973c0 .6484153.1736827 1.1540248.521048 1.5168286s.8375364.5442057 1.4705132.5442057 1.1231479-.1814019 1.4705132-.5442057.521048-.8684133.521048-1.5168286v-9.81885973h4.4231184v9.77254443c0 1.852615-.5789422 3.3115494-1.7368266 4.376803zm10.2549962 1.5747228c-2.1613842 0-3.8827723-.7371864-5.1641644-2.2115592s-1.9220881-3.4003205-1.9220881-5.77784319c0-2.3929611.640696-4.32276845 1.9220881-5.78942203 1.2813921-1.46665359 3.0027802-2.19998038 5.1641644-2.19998038 2.7634842 0 4.6932915 1.46665358 5.7894221 4.39996075l-3.6357571 1.52840742c-.1543846-.61753835-.420698-1.11542865-.7989402-1.49367089s-.8298172-.56736336-1.3547248-.56736336c-.8336767 0-1.4782324.37824224-1.9336669 1.13472672-.4554346.75648448-.6831518 1.75226507-.6831518 2.98734177 0 1.23507671.2277172 2.23085729.6831518 2.98734179.4554345.7564845 1.0999902 1.1347267 1.9336669 1.1347267.5403461 0 1.0034999-.2084192 1.3894613-.6252576.3859615-.4168384.6484153-.941746.7873614-1.57472277l3.6125994 1.50524977c-1.0343768 3.0413763-2.9641841 4.5620645-5.7894221 4.5620645z"/><path d="m100.663 15.701h-5.141l-2.594-5.28-.88 1.552v3.728h-4.377v-15.446h4.377v6.021l3.288-6.021h5.072l-4.724 7.179z"/><path d="m105.8 15.701h-4.377v-15.446h4.377z"/><path d="m114.827 15.701h-4.4v-11.625h-3.195v-3.821h10.768v3.821h-3.173z"/></g></g></svg>