<svg height="44" viewBox="0 0 223 44" width="223" xmlns="http://www.w3.org/2000/svg"><g fill="none" fill-rule="evenodd"><path d="m20.0936843 20.6440463-11.9335781 2.1013647c-3.29311785.5796162-6.43445077-1.6159617-7.0149256-4.9052324l-1.05223885-5.960011c-.58047483-3.28927061 1.61835565-6.42493273 4.91249908-7.00454892l5.96781467-1.0517064c3.2941434-.57961619 6.4354763 1.61596173 7.0159511 4.90523239zm15.2293625-2.6811857-11.9325526 2.1013647-2.1044776-11.91592569c-.5804749-3.28824659 1.6193812-6.42390872 4.9135246-7.00454896l5.9678146-1.05068235c3.2941435-.58064024 6.4344508 1.61596174 7.0159512 4.90523239l1.0522389 5.95898691c.5804748 3.2892706-1.6183557 6.4259568-4.9124991 7.005573m-17.4568065 24.8933888-5.9678146 1.0506823c-3.29414343.5806402-6.43547635-1.6159617-7.01595119-4.9052324l-1.05326441-5.9589869c-.58047484-3.2892706 1.61938122-6.4249328 4.91352464-7.005573l11.93152696-2.1013647 2.1044777 11.9159257c.5804748 3.2882466-1.6183556 6.4249328-4.9124991 7.004549" fill="#fff"/><path d="m33.0919107 40.1757805c-3.2941434.5806402-6.4354763-1.6159617-7.0159512-4.9052324l-2.1044776-11.9138776 11.9325525-2.1013647c3.2941434-.5806402 6.4344508 1.6159618 7.0159512 4.9052324l1.0522388 5.9589869c.5804749 3.2892707-1.6183556 6.4259569-4.912499 7.0055731z" fill="#ff0"/><g fill="#fff" fill-rule="nonzero" transform="translate(59.936 11)"><path d="m4.75072464 22c-1.9768116 0-3.56038648-.4357488-4.75072464-1.3072464l1.94492754-4.7507246c.63768116.4888889 1.36038647.7333333 2.16811594.7333333.63768116 0 1.15314009-.1859903 1.54637681-.557971.39323671-.3719807.58985507-.8874396.58985507-1.5463768v-14.22028986h6.02608694v14.41159416c0 2.4231884-.6695652 4.2352657-2.0086956 5.4362319-1.33913047 1.2009662-3.17777781 1.8014493-5.51594206 1.8014493zm25.69323676-2.1681159c-1.5942029 1.4454106-3.7410629 2.1681159-6.4405798 2.1681159s-4.8463768-.7227053-6.4405797-2.1681159c-1.5942029-1.4454107-2.3913043-3.4434783-2.3913043-5.9942029v-13.48695656h6.0898551v13.51884056c0 .8927536.2391304 1.5888889.7173913 2.0884058.4782608.4995169 1.1531401.7492754 2.0246376.7492754.8714976 0 1.5463769-.2497585 2.0246377-.7492754.4782609-.4995169.7173913-1.1956522.7173913-2.0884058v-13.51884056h6.0898551v13.45507246c0 2.5507246-.7971015 4.5594203-2.3913043 6.026087zm12.0468599 2.1681159c-3.4009662 0-6.1111112-.9458937-8.1304348-2.8376812l2.8057971-4.5913043c1.4241546 1.4879227 3.1884058 2.2318841 5.2927536 2.2318841.573913 0 1.0415459-.1169083 1.4028985-.3507247.3613527-.2338164.542029-.542029.542029-.9246377 0-.3613526-.2338164-.6748792-.7014492-.9405797-.4676329-.2657005-1.0468599-.4888889-1.7376812-.6695652s-1.4454106-.4463768-2.2637681-.7971014c-.8183575-.3507247-1.5729469-.7492754-2.2637681-1.1956522-.6908213-.4463768-1.2700483-1.110628-1.7376812-1.99275364-.4676328-.88212561-.7014493-1.91835749-.7014493-3.10869565 0-1.84927537.6961353-3.44879227 2.0884058-4.79855073 1.3922706-1.34975845 3.3318841-2.02463768 5.8188406-2.02463768 2.8908213 0 5.3033816.81835749 7.2376812 2.45507246l-2.742029 4.46376812c-1.3603865-1.14782609-2.9333334-1.72173913-4.7188406-1.72173913-1.0202899 0-1.5304348.38260869-1.5304348 1.14782609 0 .34009661.2285024.64830917.6855073.92463768.4570048.2763285 1.0362318.51014492 1.7376811.70144927s1.4507247.46231884 2.2478261.81304348c.7971015.35072464 1.5463768.75458937 2.2478261 1.2115942s1.2806763 1.11062803 1.7376812 1.96086953c.4570048.8502416.6855072 1.8386474.6855072 2.9652174 0 2.168116-.7173913 3.8898551-2.1521739 5.1652174s-3.3850242 1.9130435-5.8507246 1.9130435z"/><path d="m61.265 21.617h-6.058v-16.005h-4.4v-5.261h14.826v5.261h-4.368z"/><path d="m80.199 21.617h-12.594v-21.266h6.026v16.006h6.568z"/><path d="m96.9647343 19.8318841c-1.5942029 1.4454106-3.7410628 2.1681159-6.4405797 2.1681159s-4.8463768-.7227053-6.4405797-2.1681159c-1.5942029-1.4454107-2.3913044-3.4434783-2.3913044-5.9942029v-13.48695656h6.0898551v13.51884056c0 .8927536.2391304 1.5888889.7173913 2.0884058s1.1531401.7492754 2.0246377.7492754 1.5463768-.2497585 2.0246377-.7492754c.4782608-.4995169.7173913-1.1956522.7173913-2.0884058v-13.51884056h6.089855v13.45507246c0 2.5507246-.7971014 4.5594203-2.3913043 6.026087zm14.1193237 2.1681159c-2.975845 0-5.345894-1.0149758-7.110145-3.0449275s-2.646377-4.6816425-2.646377-7.9550725c0-3.29468599.882126-5.95169082 2.646377-7.97101449s4.1343-3.02898551 7.110145-3.02898551c3.804831 0 6.461836 2.01932367 7.971014 6.05797101l-5.005797 2.10434783c-.21256-.85024155-.579227-1.53574879-1.1-2.05652174s-1.142512-.78115942-1.865217-.78115942c-1.147826 0-2.035266.52077295-2.662319 1.56231884-.627053 1.0415459-.94058 2.41256039-.94058 4.11304348 0 1.7004831.313527 3.0714976.94058 4.1130435s1.514493 1.5623188 2.662319 1.5623188c.743961 0 1.381642-.2869565 1.913043-.8608695.531401-.5739131.892754-1.2966184 1.084058-2.168116l4.973913 2.0724638c-1.424154 4.1874396-4.081159 6.2811594-7.971014 6.2811594z"/><path d="m138.595 21.617h-7.079l-3.571-7.269-1.211 2.136v5.133h-6.026v-21.266h6.026v8.29l4.527-8.29h6.983l-6.504 9.884z"/><path d="m145.668 21.617h-6.026v-21.266h6.026z"/><path d="m158.097 21.617h-6.058v-16.005h-4.4v-5.261h14.826v5.261h-4.368z"/></g></g></svg>