<svg height="185" viewBox="0 0 554 185" width="554" xmlns="http://www.w3.org/2000/svg"><g fill="none"><path d="m435.997499 0-.65266.00457014-.449429.0078883c-12.163382.28182216-23.69173 4.83126069-34.116958 13.82637166-4.019976 3.4648889-7.712449 7.5086615-11.043505 12.1129959l-.548115.7676783c-2.174904 3.0866468-4.139015 6.3643836-5.888138 9.8292388l-.425209.8537288h-8.192879l-.069225-.3036888c-.88855-3.7294206-2.833275-7.1199536-5.599883-9.773309l-.292819-.2752489c-3.642507-3.3557701-8.426956-5.2656124-13.483855-5.2656124l-26.21984-.0001804.387539.0951355c-5.071443-1.2743828-10.09064-1.8988484-15.116442-1.8972337l-.874691.0070352-.638165.0132762c-7.88576.2178383-15.141236 2.008137-21.739163 5.2832252l-.574987.2903175-.572051.2990693c-5.312498 2.8210313-9.878673 6.4738052-13.668094 10.9275009l-.190401.2251238-6.156347.3393955-1.832176.0890126-1.590082.0669889-1.174874.0408485-1.254702.02955-.699371.0086911-.493725-.0008691-.681149-.0104294-.858612-.0221507-.980262-.0328414-1.115881-.0437284-10.81932-.49147-.621835-.0194052-.188044-.0038219c-.540121-.006466-1.080326.0051106-1.619714.0347142l-.523312.0343443c-1.193974.0912167-2.372706.2694751-3.528373.5317243l-.60603.1456098-.055829-.0100691c-.574545-.1006187-1.151073-.193348-1.72991-.2782449l-.580495-.0810609-.250815-.2916576c-.292091-.3329459-.595176-.6567966-.908852-.9709826-3.82265-3.828869-9.018897-6.0302716-14.534719-6.0302716l-93.40795.0009123-.503213.0073209c-5.491024.1399383-10.704394 2.0598151-14.939349 5.4080304l-.403387.3257222c-.53316.4396446-1.047463.9005691-1.541716 1.3814147l-.221079.2181819h-8.552109l-.409622-.3452827c-4.7723616-3.965813-10.5604517-6.9902374-17.4006816-8.9546126-5.8479854-1.6794228-13.0112436-2.5857156-21.2559515-2.6444668l-14.9289337-.0695728-34.2954696-.0001245-1.422978.166778-.6909719.1201033-.1365759.0272341c-3.89572684.7768343-7.34334066 2.9431161-9.73474347 6.0573416-2.3765466 3.0948789-3.58935617 6.9631384-3.34950249 10.9377582l.21934918 3.5785013.15737731 2.754735.14685742 2.7306508.06843466 1.3367448.13046295 2.685935.05998626 1.3079005.11334147 2.6278915.10154441 2.5800657.04592493 1.2595852.084918 2.533063.08988592 3.1048799.07202272 3.03991.04483513 2.385538.02455859 1.6390042c.0290695 2.1643618.04372955 4.2981531.04372955 6.3834127 0 2.6063218-.02290187 5.2884405-.06871752 8.0465579l-.05877144 3.0267006-.07581625 3.04944-.07312894 2.4746021-.08468454 2.5218809-.04595689 1.257818-.12947587 3.246355-.1465574 3.288581-.06257335 1.31072-.13609146 2.702095-.14682855 2.727683-.1585446 2.77236-.10710167 1.818086-.00944036.609425.00678515.53135.00328583.104893c.14761572 4.712342 2.0888651 9.121883 5.35622974 12.394562 3.40585461 3.411396 8.03850378 5.374029 12.95297988 5.374029h45.4052024l.7246277-.002128.7351154-.006524.8142416-.01277c8.1089693-.155258 15.2127729-1.136703 21.1507833-2.877726l.7076078-.213913.3717085.160559c5.0210861 2.130452 10.4040002 3.333849 16.1280262 3.574828l.275622.00877.201643.029423c.93756.118166 1.887355.151595 2.838673.098172l5.251827-.298746 5.824427-.317218 3.900474-.191281 2.332393-.093864 1.128017-.035634.762714-.015644.616071-.006084.454678.000869.787877.013037.570082.013906 1.464304.049521 1.162755.048189 10.435329.489424.632958.020526.191417.004087c.549802.007064 1.099705-.004568 1.648759-.034881l.545517-.03623c.871224-.067648 1.734545-.181681 2.586932-.340995l.692282-.140541c3.08834.519157 6.322863.780801 9.712177.780379l1.008117-.003045 1.010173-.009383 1.080792-.017967 1.36758-.035839.893515-.032763.85781-.039444.847131-.047863.869769-.060047.408369-.032797.735153-.066053c.117759-.011273.234327-.022776.351486-.034657l1.032125-.112722.449175-.053822c.57783-.071283 1.12692-.145009 1.687285-.226088l1.118303-.169268.512663-.082358.69151-.115754 1.022909-.180211 3.362643-.612748.044057.012499c4.591544 1.277561 9.522676 1.920991 14.837171 1.92033l1.008119-.003045 1.010172-.009383 1.080793-.017967 1.36758-.035839.893515-.032763.857809-.039444.847132-.047863.869769-.060047.408369-.032797.735152-.066053c.11776-.011273.234327-.022776.351486-.034657l1.032126-.112722.449174-.053822c.57783-.071283 1.12692-.145009 1.687285-.226088l1.118303-.169268.512663-.082358.69151-.115754 1.022848-.1802 4.023768-.733566.556553.142152c5.118391 1.272336 10.591794 1.911484 16.454422 1.911484l.840694-.004302.899775-.014256c2.687003-.056766 5.263943-.239458 7.75389-.546237l.793559-.102599 46.035265-.002607.048047.002505 32.631489-.000767.131392.427088c1.441821 4.523765 4.164746 8.501503 7.817926 11.476115 4.180157 3.403705 9.389943 5.341268 14.852874 5.447862l6.763359.131968.819197.011569.670658.002944.874652-.00582c.58135-.007253 1.159204-.021251 1.733612-.041985l.156032-.007424.004547.021514c1.163449 4.984959 3.405946 9.573735 6.626107 13.70103l.478399.603426.437302.534716.534723.632151.694451.781565.472194.505373.47551.492374.495814.496271.632041.602767.668108.605345.628869.540134.285661.236613c5.774717 4.72782 12.863355 7.480639 21.711123 7.860335 7.834438.33621 15.461103-1.375508 22.664265-5.187018 4.625007-2.447295 9.20548-5.875889 13.737736-10.397852l2.528826-2.536718 1.575659-1.596095.017945.029063c1.843371 3.074803 4.178709 5.857241 6.952172 8.362103l.361919.323651.689443.592728.236146.19702c6.338317 5.229926 13.875171 8.156255 23.039435 8.151898l.645339-.005093.619753-.013941.647345-.02452.611624-.031749.977295-.072368.763062-.074551.795288-.095105.288014-.038484.830491-.123122.660088-.113988.588718-.110348.781127-.162835.839474-.196001.805042-.208848.525394-.146811.763621-.229126.580185-.187047.607137-.206811c.808067-.283277 1.610331-.596743 2.406709-.941321l.65241-.290501.388777.16977c.652933.279347 1.316381.544775 1.990304.796112 4.824429 1.799252 10.356635 2.793068 16.585328 2.793068 6.39111 0 12.850205-1.317394 19.328579-4.044538l.750662-.322328.534127-.239067c10.128994-4.60786 18.806246-12.134022 25.774758-22.555323 8.610558-12.879858 13.563532-28.246804 14.692886-45.869271l-.016292.220455c.0959-1.145377.142727-2.288651.142727-3.441641v-1.300361l-.023623-.916906-.018951-.565434c-.419172-10.5667309-3.693355-19.7516422-9.484713-27.4409744-4.080538-5.4484492-9.286222-9.8331747-15.529553-13.0103498l-.574279-.2871236-.577696-.2786101-.12016-.0562233.426689-.4895058.975113-1.1958122.120586-.1504822.476954-.6076548.297863-.3897947c2.107843-2.7918984 3.729736-5.4923399 4.957323-8.124362 4.363549-9.3557226 4.838697-18.02082 2.204896-26.1671465l-.259819-.7738575-.245437-.6778493-.253717-.6586525-.286491-.7000803-.236946-.5473724-.273449-.6082551-.340499-.7169354-.406418-.8099508-.416373-.786499-.505676-.9053747-.311457-.5369232-.437327-.7349327-.258509-.4262895-.462835-.7460649-.508134-.7828043-.354155-.5249658-.319269-.4595638-.410735-.5694658-.529291-.700937-.572847-.7180586-.487841-.5800748-.328854-.3769018-.486661-.5367809-.475353-.5013765-.496154-.5008079-.531498-.51160159-.252281-.23401992c-5.811737-5.32948238-13.360996-8.36835322-23.312603-8.86234948l-.729658-.03173157-.679915-.00641294-.320902.00026159-.513204.00587231c-11.115051.19093422-21.944168 4.52584724-32.05029 13.6726633l-.158922.1449666-.360176-.4020251c-8.256068-9.09644443-19.236228-14.05043261-32.559254-14.0461873z" fill="#3263c2"/><path d="m435.997499 0-.65266.00457014-.449429.0078883c-12.163382.28182216-23.69173 4.83126069-34.116958 13.82637166-4.019976 3.4648889-7.712449 7.5086615-11.043505 12.1129959l-.548115.7676783c-2.174904 3.0866468-4.139015 6.3643836-5.888138 9.8292388l-.425209.8537288h-8.192879l-.069225-.3036888c-.88855-3.7294206-2.833275-7.1199536-5.599883-9.773309l-.292819-.2752489c-3.642507-3.3557701-8.426956-5.2656124-13.483855-5.2656124l-26.21984-.0001804.387539.0951355c-5.071443-1.2743828-10.09064-1.8988484-15.116442-1.8972337l-.874691.0070352-.638165.0132762c-7.88576.2178383-15.141236 2.008137-21.739163 5.2832252l-.574987.2903175-.572051.2990693c-5.312498 2.8210313-9.878673 6.4738052-13.668094 10.9275009l-.190401.2251238-6.156347.3393955-1.832176.0890126-1.590082.0669889-1.174874.0408485-1.254702.02955-.699371.0086911-.493725-.0008691-.681149-.0104294-.858612-.0221507-.980262-.0328414-1.115881-.0437284-10.81932-.49147-.621835-.0194052-.188044-.0038219c-.540121-.006466-1.080326.0051106-1.619714.0347142l-.523312.0343443c-1.193974.0912167-2.372706.2694751-3.528373.5317243l-.60603.1456098-.055829-.0100691c-.574545-.1006187-1.151073-.193348-1.72991-.2782449l-.580495-.0810609-.250815-.2916576c-.292091-.3329459-.595176-.6567966-.908852-.9709826-3.82265-3.828869-9.018897-6.0302716-14.534719-6.0302716l-93.40795.0009123-.503213.0073209c-5.491024.1399383-10.704394 2.0598151-14.939349 5.4080304l-.403387.3257222c-.53316.4396446-1.047463.9005691-1.541716 1.3814147l-.221079.2181819h-8.552109l-.409622-.3452827c-4.7723616-3.965813-10.5604517-6.9902374-17.4006816-8.9546126-5.8479854-1.6794228-13.0112436-2.5857156-21.2559515-2.6444668l-14.9289337-.0695728-34.2954696-.0001245-1.422978.166778-.6909719.1201033-.1365759.0272341c-3.89572684.7768343-7.34334066 2.9431161-9.73474347 6.0573416-2.3765466 3.0948789-3.58935617 6.9631384-3.34950249 10.9377582l.21934918 3.5785013.15737731 2.754735.14685742 2.7306508.06843466 1.3367448.13046295 2.685935.05998626 1.3079005.11334147 2.6278915.10154441 2.5800657.04592493 1.2595852.084918 2.533063.08988592 3.1048799.07202272 3.03991.04483513 2.385538.02455859 1.6390042c.0290695 2.1643618.04372955 4.2981531.04372955 6.3834127 0 2.6063218-.02290187 5.2884405-.06871752 8.0465579l-.05877144 3.0267006-.07581625 3.04944-.07312894 2.4746021-.08468454 2.5218809-.04595689 1.257818-.12947587 3.246355-.1465574 3.288581-.06257335 1.31072-.13609146 2.702095-.14682855 2.727683-.1585446 2.77236-.10710167 1.818086-.00944036.609425.00678515.53135.00328583.104893c.14761572 4.712342 2.0888651 9.121883 5.35622974 12.394562 3.40585461 3.411396 8.03850378 5.374029 12.95297988 5.374029h45.4052024l.7246277-.002128.7351154-.006524.8142416-.01277c8.1089693-.155258 15.2127729-1.136703 21.1507833-2.877726l.7076078-.213913.3717085.160559c5.0210861 2.130452 10.4040002 3.333849 16.1280262 3.574828l.275622.00877.201643.029423c.93756.118166 1.887355.151595 2.838673.098172l5.251827-.298746 5.824427-.317218 3.900474-.191281 2.332393-.093864 1.128017-.035634.762714-.015644.616071-.006084.454678.000869.787877.013037.570082.013906 1.464304.049521 1.162755.048189 10.435329.489424.632958.020526.191417.004087c.549802.007064 1.099705-.004568 1.648759-.034881l.545517-.03623c.871224-.067648 1.734545-.181681 2.586932-.340995l.692282-.140541c3.08834.519157 6.322863.780801 9.712177.780379l1.008117-.003045 1.010173-.009383 1.080792-.017967 1.36758-.035839.893515-.032763.85781-.039444.847131-.047863.869769-.060047.408369-.032797.735153-.066053c.117759-.011273.234327-.022776.351486-.034657l1.032125-.112722.449175-.053822c.57783-.071283 1.12692-.145009 1.687285-.226088l1.118303-.169268.512663-.082358.69151-.115754 1.022909-.180211 3.362643-.612748.044057.012499c4.591544 1.277561 9.522676 1.920991 14.837171 1.92033l1.008119-.003045 1.010172-.009383 1.080793-.017967 1.36758-.035839.893515-.032763.857809-.039444.847132-.047863.869769-.060047.408369-.032797.735152-.066053c.11776-.011273.234327-.022776.351486-.034657l1.032126-.112722.449174-.053822c.57783-.071283 1.12692-.145009 1.687285-.226088l1.118303-.169268.512663-.082358.69151-.115754 1.022848-.1802 4.023768-.733566.556553.142152c5.118391 1.272336 10.591794 1.911484 16.454422 1.911484l.840694-.004302.899775-.014256c2.687003-.056766 5.263943-.239458 7.75389-.546237l.793559-.102599 46.035265-.002607.048047.002505 32.631489-.000767.131392.427088c1.441821 4.523765 4.164746 8.501503 7.817926 11.476115 4.180157 3.403705 9.389943 5.341268 14.852874 5.447862l6.763359.131968.819197.011569.670658.002944.874652-.00582c.58135-.007253 1.159204-.021251 1.733612-.041985l.156032-.007424.004547.021514c1.163449 4.984959 3.405946 9.573735 6.626107 13.70103l.478399.603426.437302.534716.534723.632151.694451.781565.472194.505373.47551.492374.495814.496271.632041.602767.668108.605345.628869.540134.285661.236613c5.774717 4.72782 12.863355 7.480639 21.711123 7.860335 7.834438.33621 15.461103-1.375508 22.664265-5.187018 4.625007-2.447295 9.20548-5.875889 13.737736-10.397852l2.528826-2.536718 1.575659-1.596095.017945.029063c1.843371 3.074803 4.178709 5.857241 6.952172 8.362103l.361919.323651.689443.592728.236146.19702c6.338317 5.229926 13.875171 8.156255 23.039435 8.151898l.645339-.005093.619753-.013941.647345-.02452.611624-.031749.977295-.072368.763062-.074551.795288-.095105.288014-.038484.830491-.123122.660088-.113988.588718-.110348.781127-.162835.839474-.196001.805042-.208848.525394-.146811.763621-.229126.580185-.187047.607137-.206811c.808067-.283277 1.610331-.596743 2.406709-.941321l.65241-.290501.388777.16977c.652933.279347 1.316381.544775 1.990304.796112 4.824429 1.799252 10.356635 2.793068 16.585328 2.793068 6.39111 0 12.850205-1.317394 19.328579-4.044538l.750662-.322328.534127-.239067c10.128994-4.60786 18.806246-12.134022 25.774758-22.555323 8.610558-12.879858 13.563532-28.246804 14.692886-45.869271l-.016292.220455c.0959-1.145377.142727-2.288651.142727-3.441641v-1.300361l-.023623-.916906-.018951-.565434c-.419172-10.5667309-3.693355-19.7516422-9.484713-27.4409744-4.080538-5.4484492-9.286222-9.8331747-15.529553-13.0103498l-.574279-.2871236-.577696-.2786101-.12016-.0562233.426689-.4895058.975113-1.1958122.120586-.1504822.476954-.6076548.297863-.3897947c2.107843-2.7918984 3.729736-5.4923399 4.957323-8.124362 4.363549-9.3557226 4.838697-18.02082 2.204896-26.1671465l-.259819-.7738575-.245437-.6778493-.253717-.6586525-.286491-.7000803-.236946-.5473724-.273449-.6082551-.340499-.7169354-.406418-.8099508-.416373-.786499-.505676-.9053747-.311457-.5369232-.437327-.7349327-.258509-.4262895-.462835-.7460649-.508134-.7828043-.354155-.5249658-.319269-.4595638-.410735-.5694658-.529291-.700937-.572847-.7180586-.487841-.5800748-.328854-.3769018-.486661-.5367809-.475353-.5013765-.496154-.5008079-.531498-.51160159-.252281-.23401992c-5.811737-5.32948238-13.360996-8.36835322-23.312603-8.86234948l-.729658-.03173157-.679915-.00641294-.320902.00026159-.513204.00587231c-11.115051.19093422-21.944168 4.52584724-32.05029 13.6726633l-.158922.1449666-.360176-.4020251c-8.256068-9.09644443-19.236228-14.05043261-32.559254-14.0461873z" fill="#234589"/><path d="m435.6042 16.5157781c9.423451-.0017428 15.966934 3.3645163 20.76032 8.6458121 2.308793 2.5407092 4.093889 5.3790097 5.262732 8.5564975l2.944018 8.261005 9.118723-9.1323381 1.861778-1.8528136 2.062614-2.0343671 1.465343-1.4284709c6.658971-6.3572013 13.001659-9.2091405 18.643322-10.0795992l.632014-.0898169c1.103976-.1434977 2.176506-.2128956 3.214925-.2229627 7.337101.2890462 11.328618 2.1496904 13.900015 4.492704l.442517.4208739.219752.2218134.224059.2363255.237261.2616964.411768.4831127.291985.3659996.287872.381228.219493.3043168.21224.3055047.204213.3041929.295931.4577036.305236.4911843.231772.3821989.358049.6024192.206356.3567966.308591.5544322.250863.4738612.245251.4887627.189558.3991216.172998.3848137.27209.6529723.125811.3266089.125201.3457807.132827.3942573.183757.6030341.17323.6497752c.823007 3.3713415.659095 7.5550806-1.809997 12.8489672-.654766 1.403859-1.643946 3.1301969-3.12181 5.0895603l-.265286.3471629-.325515.4134029-.77771.9537305-1.169293 1.3425351-.722151.7896709-.643645.6841096-.662366.6871159-.705972.7160629-1.044086 1.0333647-.906018.8754813-.509737.4850123-1.25196 1.1765353-.588464.5617131-1.311317 1.2704197-1.958329 1.9230271-13.31553 13.5219391c11.397156-1.2177576 13.931003-1.5261596 15.979196-1.618242l.152835-.0065114c.076093-.0030637.151798-.0058476.227556-.0083882l.623925-.0154556.624612-.0053194c4.952028.0005726 9.314246 1.1180221 13.157916 3.0740313 4.042978 2.0574356 7.288762 4.832357 9.827397 8.2219713.002634.003517.005268.0070346.008453.0112552l.25853.3483786c3.416896 4.6735346 5.621168 10.4888117 5.910934 17.7182648l.017682.527562.015054.593787v1.09072c0 .684333-.027028 1.368577-.085055 2.061626-.001537.018358-.003095.036707-.004711.057782-.000933.014654-.001869.029309-.002808.043966-.961865 15.008967-5.110792 27.52514-11.938224 37.737759-5.4424 8.139024-11.861778 13.507135-18.824185 16.67771l-.420139.188198-.520701.223348c-4.629199 1.946427-8.939068 2.748094-12.925213 2.748094-4.633031 0-8.201428-.77386-10.832603-1.755147-2.022497-.754282-3.827078-1.680386-5.43763-2.74174-1.020455-.67248-2.021959-1.438099-2.998576-2.305989-.821409.817232-1.77074 1.625355-2.872722 2.407377-1.968906 1.397236-3.854707 2.30636-5.612898 2.892786l-.79184.244638-.714454.190496-.435114.101591-.420143.087584-.69604.124608-.388739.058321-.665687.082246-.392919.038389-.603608.044696-.38803.020143-.382066.013586-.356948.007286c-6.010272-.005559-9.947538-1.9385-12.840946-4.316421l-.62221-.53088c-.440351-.396578-.700484-.640244-.950883-.886804l-.418456-.423028c-2.806725-2.914-4.916654-6.785338-5.167767-12.225339l-.096274-2.736286-1.992912-1.767939c-1.975407-1.827382-2.14445-2.249752-5.174319-5.68658l-17.62048 17.343604-2.519595 2.527517c-3.593113 3.58412-6.883386 5.948617-9.7989 7.491344-4.706965 2.490663-9.47893 3.494989-14.257605 3.289916-5.660005-.242896-9.341844-1.996256-11.899717-4.079331l-.544921-.46267-.338916-.307078-.335304-.319774-.30398-.30426-.484007-.512024-.423254-.476349-.271636-.320002-.261719-.318473-.378769-.477264c-2.652199-3.405937-4.209738-7.502194-4.028094-12.515186.031248-.862382.117338-1.787471.291137-2.768718l.866722-4.89341-6.502432-1.481498c-3.951478 1.084373-8.258054 1.657341-12.94174 1.662614l-.629858-.002765-.609635-.008957-6.75084-.131724c-1.792113-.034968-3.457281-.678704-4.774452-1.751214-1.2492-1.017164-2.185712-2.419896-2.620072-4.055071l-2.64743-11.548328-45.496124.001171-47.480673.000454c-2.58905.401006-5.375911.630586-8.368057.663058l-.752729.003995c-5.50241-.001158-10.294825-.708866-14.45632-1.970221l-1.656886-.51524-7.779003 1.417699-.98515.173559-.485118.081049-.472747.075946-.89595.135398-.4312.060912-.877489.114729-.393521.047153-.781044.085033c-.245089.024761-.484033.047041-.716822.066911l-1.065283.077184-.635495.035236-.694077.031449-.739773.026734-1.199714.030909-.855753.014049-.902845.008595-.950344.002917c-4.67559-.000125-8.646555-.664787-12.024708-1.811857l-1.717106-.597135-7.363281 1.341173-.985467.173615-.485118.081049-.472747.075946-.89595.135398-.4312.060912-.87749.114729-.39352.047153-.781045.085033c-.245089.024761-.484032.047041-.716822.066911l-1.065283.077184-.635495.035236-.694076.031449-.739774.026734-1.199714.030909-.855753.014049-.902844.008595-.950345.002917c-3.354778-.00009-6.347275-.342474-9.018837-.959756-.566071-.130795-1.139698-.279006-1.720934-.445175-.423815.265046-.865657.484837-1.319371.659748-.741438.28583-1.539577.461443-2.375578.507597-.163668.009035-.327553.012906-.491414.011612l-.347699-.010381-10.470196-.490875-1.282285-.052788-1.535915-.0516-.697815-.017589-.95224-.015563-.761055-.002647-.810013.008777-.918107.02011-1.299807.04045-2.433075.098396-4.061599.198472-5.872258.319856-3.670513.208796c-6.747773.14127-11.9934651-1.199244-16.467053-3.711095l-1.9741407-1.129787c-2.332429.225257-3.8010727.711565-5.2433914 1.219684l-.954732.328131c-4.5515155 1.506174-10.7467643 2.492677-18.6607404 2.590229l-.6416171.005881-.6669538.002005h-45.3973905c-.5058567 0-.963824-.205372-1.2953272-.537415-.2879333-.288401-.4812419-.672293-.5263665-1.100646l.080164-1.767824.1593872-2.788213.1498092-2.78433.1383586-2.747912.0649443-1.361614.149687-3.361624.131761-3.305284.0477269-1.307665.0867362-2.585795.0752417-2.5504399.0778211-3.1369124.0597549-3.0796569c.0473813-2.8500678.0711204-5.6262592.0711204-8.3285763 0-2.1606841-.0151762-4.3685885-.0455985-6.6320504l-.02544-1.6921488-.0464419-2.4635976-.0742138-3.1256443-.0922364-3.1819211-.0867437-2.5860184-.0477193-1.3074586-.1039774-2.6398108-.1154538-2.6758614-.0620705-1.3524215-.1326196-2.7295171-.0706576-1.3794078-.1497888-2.7839518-.1612464-2.8207365-.2063764-3.3724461 33.0960073-.0008101 14.174121.0666534c7.4303175.0028153 13.2553963.7797563 17.5321428 2.0079511 7.3692432 2.1162971 12.111378 5.7087529 15.1441724 9.6368143l24.9314477.3558728c.335493-2.2346892 1.518158-4.1912724 3.21134-5.5299262 1.407679-1.1129306 3.167948-1.7986734 5.085692-1.8603142l93.550255-.0045742c1.123565 0 2.140761.4561552 2.877066 1.1936583.470723.4714891.828249 1.0572426 1.023507 1.7134935l.903936 3.0380737 4.099718.7842599c2.853849.1276794 5.540549.4781509 8.065732 1.0286771l2.582078.5831712c1.155352-.821381 2.549448-1.332099 4.06831-1.4154597.160794-.008825.321797-.0126656.48278-.0115207l.341595.0097968 10.864269.4932816 1.213205.047334 1.09964.0364832.987361.0253232.876579.0138132.697207.0005469.895589-.01062 1.450687-.0347358 1.325742-.0456952 1.745373-.074046 1.936063-.0942984 6.242032-.3436398 7.851346-.4523027 1.701219-2.6028082c2.893525-4.3667211 6.682731-7.7429231 11.349476-10.1482683l.466426-.235776c4.331587-2.1471694 9.23444-3.4065582 14.762867-3.5617969l.584341-.0121565.590354-.004216c3.632208.0002562 7.294237.4505059 10.98271 1.3755681l1.390364.3604126 28.548465.0663041c.9232-.0012345 1.761625.3623687 2.379457.9549094.561835.5388361.941991 1.2668208 1.03647 2.0823005l-.059062 4.8732426-.124506 7.7074169 35.523527.0001563c.770371-2.4561034 1.665527-4.8184911 2.680918-7.0886755 1.825909-4.0823197 3.972986-7.80638 6.417875-11.1858157 2.619307-3.6205248 5.451791-6.703923 8.453617-9.2912523 7.861553-6.7831171 15.878793-9.6435867 23.660978-9.8272403z" fill="#fff"/><path d="m73.0229435 82.6187739c10.1219921 0 15.1829882 3.2098073 15.1829882 9.629422 0 3.0105779-.6881179 5.5673555-2.0643536 7.6703327-1.3762358 2.1029774-3.8401418 3.7410854-7.391718 4.9143254s-8.4793882 1.75986-14.7834359 1.75986h-29.9664242c.3551576-8.5890015.5327364-16.6245881.5327364-24.1067597s-.1775788-15.5177582-.5327364-24.1067599h15.6491326v.0664098h14.1841075c5.5049431 0 9.8445252.4538003 13.0187465 1.361401 3.1742212.9076007 5.4161537 2.2247285 6.7257974 3.9513835s1.9644656 3.9181786 1.9644656 6.5745709c0 2.7006655-.9433874 5.1024868-2.8301623 7.2054641-1.8867749 2.1029772-5.1164895 3.7964273-9.6891438 5.0803502zm-23.3738109-12.0865849v6.1761121h12.7856743c2.7524716 0 4.6725425-.2435027 5.7602127-.7305079 1.0876702-.4870053 1.6315053-1.3724693 1.6315053-2.6563923 0-1.0182837-.5660325-1.7377233-1.6980974-2.1583187-1.1320649-.4205955-3.0299384-.6308932-5.6936206-.6308932zm12.7856743 23.9075305c2.3085246 0 4.073214-.0996147 5.2940683-.2988441s2.0976497-.5534151 2.6303861-1.0625569c.5327365-.5091419.7991047-1.2064448.7991047-2.0919089 0-1.1511034-.6326245-1.9812259-1.8978736-2.4903678-1.265249-.5091419-3.5404775-.7637128-6.8256855-.7637128h-12.7856743v6.7073905zm72.0526021-24.1067599c-.310763 5.5784238-.466144 11.5995796-.466144 18.0634675 0 6.5081611.155381 12.5735899.466144 18.1962869-2.841261-.132819-5.083193-.199229-6.725797-.199229-1.553815 0-3.795747.06641-6.725798.199229l-1.931169-9.7622414c-1.021079 3.5418564-2.619288 6.1650434-4.794628 7.8695624-2.175341 1.704518-4.705839 2.556777-7.591494 2.556777-2.663682 0-4.972207-.58662-6.9255739-1.75986s-3.4294908-2.756007-4.4283716-4.748301-1.4983212-4.2280909-1.4983212-6.7073903v-9.5630122c0-5.8883362-.1109868-10.6034325-.3329603-14.1452889h14.983212c-.266368 6.5081611-.399552 12.9499124-.399552 19.3252538 0 1.948021.477243 3.4975832 1.431729 4.6486865s2.164242 1.726655 3.629267 1.726655c1.376236 0 2.585991-.6087566 3.629267-1.8262697 1.043275-1.2175131 1.6759-2.8888266 1.897873-5.0139404v-1.5274256c.08879-3.4533099.133184-5.844063.133184-7.1722591 0-3.0548512-.088789-6.4417513-.266368-10.1607005zm35.493565 11.8873554c-4.084313-.2656392-7.813468-.4648686-11.187465-.5976882l-.066592 7.0394395c0 2.3907531.521637 4.261296 1.564913 5.6116287 1.043275 1.3503327 2.896754 2.0254991 5.560436 2.0254991 1.021079 0 1.997762-.0885464 2.930051-.2656392-.177579 1.6381086-.266368 3.2983537-.266368 4.9807351 0 .796918.044394 2.612119.133184 5.445605-1.953367.354185-3.595971.575551-4.927812.664098-1.331841.088546-3.063235.132819-5.194181.132819-5.19418 0-8.867841-1.250718-11.020984-3.752154-2.153144-2.501436-3.229715-5.9879508-3.229715-10.4595444l.066592-11.2232574c-2.086551.0885464-4.261891.221366-6.526021.3984588v-11.7545358c2.308524 0 4.261891-.7305079 5.8601-2.1915236 1.59821-1.4610158 2.552696-3.2098073 2.863459-5.2463748h18.113038c-2.264129 3.0991244-4.77243 5.5784238-7.524902 7.4378984h12.852267zm34.161723 0c-4.084312-.2656392-7.813467-.4648686-11.187465-.5976882l-.066592 7.0394395c0 2.3907531.521638 4.261296 1.564913 5.6116287 1.043276 1.3503327 2.896755 2.0254991 5.560437 2.0254991 1.021078 0 1.997762-.0885464 2.93005-.2656392-.177579 1.6381086-.266368 3.2983537-.266368 4.9807351 0 .796918.044395 2.612119.133184 5.445605-1.953367.354185-3.595971.575551-4.927812.664098-1.331841.088546-3.063234.132819-5.19418.132819-5.19418 0-8.867842-1.250718-11.020985-3.752154s-3.229714-5.9879508-3.229714-10.4595444l.066592-11.2232574c-2.086551.0885464-4.261892.221366-6.526022.3984588v-11.7545358c2.308525 0 4.261892-.7305079 5.860101-2.1915236 1.598209-1.4610158 2.552695-3.2098073 2.863458-5.2463748h18.113039c-2.26413 3.0991244-4.772431 5.5784238-7.524902 7.4378984h12.852266zm39.22272 7.7699475h-21.70901c.355158 1.948021 1.231953 3.530788 2.630387 4.7483012 1.398433 1.2175131 3.385096 1.8262696 5.959988 1.8262696 1.864578 0 3.618169-.3652539 5.260773-1.0957618 1.642604-.7305078 2.952247-1.7598599 3.928931-3.088056 2.974445 1.4610158 6.925573 3.0327145 11.853385 4.7150963-1.376235 3.0991242-3.873437 5.5673552-7.491606 7.4046932-3.618168 1.837338-8.335105 2.756007-14.150811 2.756007-7.5471 0-13.129733-1.737723-16.747902-5.21317-3.618168-3.4754462-5.427252-8.0466545-5.427252-13.7136247 0-5.5341506 1.797985-10.0278809 5.393956-13.4811908 3.595971-3.45331 9.189704-5.179965 16.781198-5.179965 4.528259 0 8.457191.7526445 11.786793 2.2579335 3.329603 1.5052889 5.882298 3.5971978 7.658087 6.2757267 1.775788 2.6785289 2.663682 5.7444483 2.663682 9.1977583 0 1.1511033-.044395 2.0144308-.133184 2.5899825zm-12.785674-10.2935201c-2.219736 0-4.039918.4205954-5.460549 1.2617863-1.42063.8411909-2.419511 1.9922942-2.996642 3.45331h15.715724c-.532736-1.4167426-1.398433-2.5567776-2.59709-3.4201051s-2.752471-1.2949912-4.661443-1.2949912zm41.287073.4648686c1.864577-6.6852539 6.503824-10.0278808 13.917739-10.0278808 1.287446 0 2.530498.0885464 3.729155.2656392l-2.130946 14.8757968c-3.196418-1.1953766-5.815706-1.7930648-7.857862-1.7930648-2.530498 0-4.395075.7526445-5.593732 2.2579334-1.198657 1.505289-1.797986 3.5197198-1.797986 6.0432924v-.0664098l-.066592 4.3830473c0 3.1433975.088789 6.6409803.266368 10.4927493h-15.915501c.355158-6.375341.532737-12.3964971.532737-18.0634673s-.177579-11.7323992-.532737-18.1962871c2.930051.1328196 5.171983.1992294 6.725798.1992294 1.642604 0 3.884536-.0664098 6.725797-.1992294zm37.691102-12.8835025c-.088789.221366-.133184.5091418-.133184.8633275 0 .7083713.299664 1.2728546.898993 1.6934501.599328.4205954 1.431729.6308931 2.497202.6308931h8.790151v11.7545358c-3.68476-.3099124-6.614811-.4870052-8.790151-.5312784.044395 8.234816.221973 16.5360419.532736 24.9036774h-15.782316c.044394-5.224238.066592-13.459054.066592-24.704448-.932289.0442732-2.530498.1549562-4.794628.332049v-11.7545358h4.728036v-1.2617863c0-3.45331.710315-6.3974781 2.130945-8.8325043 1.420631-2.4350263 3.385096-4.2723643 5.893397-5.512014s5.382858-1.8594746 8.623671-1.8594746c2.619288 0 5.260772.3763222 7.924454 1.1289667-.887894 3.231944-1.775788 7.2829422-2.663682 12.1529947l-.399552 1.9922942c-.976683-.8411909-2.053255-1.4720841-3.229715-1.8926795-1.176459-.4205954-2.253031-.6308932-3.229714-.6308932-.799105 0-1.465025.1328196-1.997762.3984589-.532736.2656392-.887894.6419614-1.065473 1.1289667zm32.230554 12.7506829c-.044394 2.6563923-.066592 6.7295271-.066592 12.2194045 0 6.5967075.044395 11.3782131.133184 14.3445181h-15.715724l.066592-7.504308c.088789-8.2348161.133184-14.5880209.133184-19.0596146 0-4.2502276-.044395-10.2713835-.133184-18.0634675l-.066592-7.1722591h15.715724c-.088789 6.286795-.133184 11.4224868-.133184 15.4070752 0 4.4273205.022198 7.7035376.066592 9.8286514zm49.211528-9.6958318-1.531617 3.8517688c-4.217497 11.2011208-8.63477 22.0037827-13.251819 32.4079856-2.397314 5.312785-5.860101 9.574081-10.38836 12.783888-4.52826 3.209807-10.210782 4.748301-17.047566 4.615482-.843499-3.674676-1.542716-6.541366-2.09765-8.60007s-1.276347-4.128477-2.164241-6.209317c2.441708.575551 4.728035.863327 6.858981.863327 3.462787 0 6.215258-.730508 8.257415-2.191523-1.59821-4.737233-3.484984-9.8286519-5.660325-15.2742561-2.17534-5.4456041-5.327364-12.8613659-9.456071-22.2472853h15.782316c.532737 2.2136602 1.265249 4.7815061 2.197538 7.7035376s1.864578 5.73338 2.796866 8.4340455c.266368.8411909.699217 2.1140455 1.298545 3.8185639.599329 1.7045184 1.076572 3.1323292 1.431729 4.2834325l1.731394-5.2463747c3.329603-9.6072854 5.305167-15.9383537 5.926693-18.9932048z" fill="#85008c"/><path d="m501.99433 33.6265478.289228.0078742c1.63353.0703823 2.452822.7254042 2.881146 1.450168.422443.7148122.605137 1.748671-.083578 3.2312241-.308252.6635547-.820128 1.4706637-1.553059 2.4111308l-.226528.2861306-.368674.4492209-.205592.243258-.214353.248919-.43435.4918324-.469437.5155888-.499643.5339875-.530025.5527057-.562005.5731613-.896102.8913086-.800881.7773246-.425972.4071737-1.249928 1.1789436-.677189.6485401-1.394899 1.3564771-2.113775 2.0834465-76.177353 77.6785217-13.674776 13.901979-2.452165 2.469735c-2.153519 2.155056-4.080153 3.649753-5.833913 4.581455-1.924189 1.022246-3.869464 1.477933-5.830292 1.393448-1.584764-.068281-2.462287-.622824-2.937427-1.23518-.37206-.479508-.576015-1.059503-.550678-1.761568.015845-.439013.132201-.95307.400958-1.531606.534064-1.149646 1.482087-2.423536 2.884349-3.794936l.307452-.295354 7.127018-7.11455 79.874789-81.8513378 9.820321-9.8738456 1.806529-1.8051517 1.989659-1.9704861 1.37855-1.3492359c4.188167-3.9977634 8.015664-5.8191087 11.402595-5.7803031zm6.337422 58.4331818c2.127445 0 4.016473.4366725 5.673853 1.2834715 1.67625.8564397 3.037083 1.9961463 4.091117 3.4093541 1.836698 2.4268216 2.830797 5.5405758 2.899461 9.3731968l.003817.428807v.625625c0 .257916-.013454.515834-.040441.775897-.717228 11.867213-3.79006 21.830746-9.169121 29.90904-3.528864 5.298467-7.592106 8.927943-12.150985 10.949078-2.41207 1.057998-4.672248 1.570062-6.774323 1.570062-2.149145 0-3.83243-.257174-5.061947-.717551-1.318306-.493624-2.405332-1.158927-3.273819-1.975959-.897796-.872433-1.545702-1.851774-1.969558-2.954127-.415024-1.079385-.617529-2.152172-.617529-3.216565 0-1.087036.193367-2.107053.572994-3.061467.380701-.957113.8966-1.786585 1.5464-2.499418 1.507505-1.637276 3.307432-2.434394 5.381793-2.434394 1.784757 0 2.893492.520859 3.536551 1.203353.613515.640858.939449 1.257317 1.077089 1.801093.214882.848936.064427 1.629454-.457918 2.340349-.741697 1.035975-1.218928 1.88611-1.253372 2.596186-.02814.580115-.069982.998081.016618 1.215802.262067.298329.425486.331867.606385.331867 2.702482 0 5.210757-1.757628 7.654827-4.923321 1.977571-2.561459 3.65621-5.748199 5.049389-9.552388-.441463.228522-.89534.443102-1.361662.643693-2.242891.96479-4.280782 1.426138-6.106368 1.426138-1.840301 0-3.403384-.229994-4.694322-.662731-1.382362-.463382-2.635706-1.237534-3.753724-2.333583-2.358731-2.2741-3.632644-5.622896-3.632644-10.142994 0-7.192507 2.320031-13.261165 6.928919-18.2182205 2.842438-3.0590412 6.039956-5.1534876 9.571656-6.3039878 1.781407-.5886162 3.683322-.8863061 5.706864-.8863061zm-48.024292-.0347569c1.731653 0 3.134954.4740938 4.241409 1.3395168 2.126258 1.6978964 3.017842 3.4962818 3.017842 5.2828618 0 1.5067787-.226537 3.0786697-.687672 4.7146147-.433994 1.539659-1.011696 3.15242-1.735038 4.837602-.70874 1.651164-1.523555 3.34996-2.444921 5.096162-.910116 1.724879-1.843585 3.408681-2.800374 5.051423-1.725757 2.771849-3.111125 4.957219-4.182106 6.600404.489358.043869 1.041336.061769 1.653066.061769 2.161165 0 4.280395-.054161 6.357687-.162573l1.241343-.071559 1.160119-3.007341c1.464128-3.747862 2.363935-6.455541 2.674595-8.129168.549226-2.03968.910111-3.481042 1.112495-4.464742.154335-.750154.367458-1.300637.589253-1.673807.578583-.973466 1.313032-1.224811 2.002788-1.224811 1.837413 0 3.583047.600794 5.231563 1.851454 1.846524 1.418015 2.580684 2.933654 2.580684 4.405977 0 2.259407-1.108852 5.965544-3.437169 11.105048l-.163732.358149.204763.041749c.378113.088724.746748.233879 1.105219.437913l.213858.129505c.547158.351543 1.050115.785648 1.50621 1.305467 1.207291 1.427883 1.60772 2.560696 1.60772 3.340266 0 1.299177-.473821 2.01642-.994633 2.435417-.45719.367812-1.261739.700369-2.643191.5019-.816832-.119792-1.620036-.191979-2.409647-.216061l-.589659-.009035-1.961569-.000642-.038535.071888c-.671302 1.235873-1.297884 2.381733-1.879752 3.437625l-.428017.775052c-1.328841 2.400916-2.405482 4.294432-3.230033 5.681186-3.427247 5.744253-6.390499 7.969481-8.568118 7.969481-1.017855 0-1.727717-.321504-2.22135-.769487-.552309-.501233-.924989-1.21916-.924989-2.255547 0-1.125417.440788-2.560308 1.474367-4.274353.81884-1.528611 1.663825-3.225192 2.535331-5.089552l.328059-.706999 1.803486-4.044217c-2.689887.212855-4.529224.317787-5.517951.317787-2.710384 0-4.532728-.172911-5.480998-.452637-1.170334-.345232-2.056638-.842502-2.693371-1.43597-.57704-.537829-1.092092-1.159536-1.542544-1.867332-1.02882-1.6614-1.405184-2.996777-1.359631-3.989326.040093-.873567.307076-1.897646.850697-3.061483l.155157-.320867 4.568701-8.492744c3.536375-6.824429 5.570764-13.018315 6.060525-18.5927404.113741-1.0334378.579789-1.7564681 1.340447-2.2482165.540777-.3496005 1.29768-.5890074 2.317616-.5890074zm47.142954 8.3787833c-1.515971 0-3.006433.843917-4.536981 2.328115-2.612566 2.52049-4.347487 6.057609-5.279057 10.571367-.295316 1.421265-.447789 2.68109-.447789 3.782679 0 1.067281.059322 1.940596.192055 2.618264.111354.568522.280478 1.070987.547437 1.552283.183444.356232.386787.64309.649335.823401.188767.129641.40745.183661.649176.183661.956693 0 1.84281-.185207 2.655814-.566746.87947-.412731 1.712-.996516 2.503118-1.74298.836894-.789658 1.604216-1.731861 2.306651-2.822614.724014-1.124258 1.350977-2.361532 1.883306-3.710556 1.144606-2.866812 1.70987-5.982477 1.70987-9.351193 0-1.272544-.180349-2.277426-.729612-2.928119-.467405-.553719-1.201624-.737562-2.103323-.737562zm-71.162689-67.403756c3.5235 0 6.208411 1.1277174 8.121197 3.2436363 1.713533 1.8899444 2.594282 4.2319132 2.594282 7.0456014 0 2.6983888-.722815 5.1273174-2.156831 7.2906443-1.511522 2.3303794-3.414038 3.6035899-5.631068 3.9510471-1.985883.2947073-3.635932-.2079517-4.986401-1.4366867-1.25999-1.1642804-1.847889-2.5166067-1.847889-4.0353497 0-.736795.158869-1.3423383.418561-1.8333102.317706-.6006508.789421-1.0605067 1.426363-1.3681002 1.332391-.661768 2.350295-1.3598475 3.019626-2.1353767.48912-.5667258.769102-1.1663001.769102-1.8231462 0-.2901932-.083735-.5441805-.270176-.754536-.168512-.1901276-.460874-.2160635-.796955-.2182016l-.296907.000721c-.867574 0-1.761006.256225-2.688321.7314605-1.068755.5477223-2.118911 1.3063871-3.156453 2.2671289-1.093019 1.0121124-2.157417 2.2105933-3.196246 3.5926187-1.058295 1.4079213-2.038973 2.9325253-2.942921 4.57323-.925666 1.6428927-1.732564 3.3268385-2.428227 5.066066 1.316717-.75756 2.741407-1.3410167 4.273998-1.7505727 1.268323-.3383892 2.614082-.5099908 4.037927-.5099908 1.496517 0 2.945682.2931571 4.347093.8815072 1.405734.5901657 2.656357 1.4593442 3.74848 2.612532 2.264604 2.4886901 3.449401 5.8498622 3.449401 10.1666234 0 4.2291067-1.126354 8.1309996-3.379439 11.7060023-1.965268 3.1726429-4.598447 5.7489185-7.904525 7.7237834-3.219376 1.9509451-6.221725 2.8853594-8.987987 2.8853594-2.881325 0-5.173536-.5715529-6.90687-1.6227332-1.737878-1.0539363-3.149532-2.42246-4.237233-4.1032188-1.034076-1.6376385-1.779528-3.4506353-2.24023-5.4582566-.438862-1.9124465-.666406-4.2838823-.666406-7.1165078 0-2.7890791.379235-5.9108839 1.147729-9.3644341.763587-3.4314973 1.814634-6.6466087 3.150879-9.6460985 1.340719-3.0095337 2.909965-5.7595633 4.705522-8.251388 1.81213-2.5148257 3.759151-4.6692397 5.83584-6.4662224 4.545804-3.9399986 9.117997-5.8438317 13.675085-5.8438317zm-7.534578 29.8933401c-1.132714 0-2.242608.3947242-3.343769 1.1329664-1.242862.8332415-2.341931 1.9780331-3.311191 3.4198052-.991453 1.4849643-1.785029 3.2267842-2.387918 5.215825-.596243 1.9671111-.909888 3.6331885-.909888 5.0019323 0 1.346012.049018 2.3265079.172679 2.9379287.103976.514096.276596.9979786.532997 1.4773671.200034.3893436.435453.6996744.742004.8964472.276448.17745.603662.248192.970508.248192 1.407496 0 2.80493-.8143077 4.278442-2.2410124 2.686506-2.5314562 4.487643-5.8582463 5.440207-9.9580308.290661-1.2943126.441491-2.4521993.441491-3.4751665 0-.9674053-.06333-1.7589533-.210726-2.3716224-.122608-.5096362-.299665-.9570364-.545325-1.3358361-.424429-.6466492-1.058597-.9487957-1.869511-.9487957z" fill="#e600c7"/></g></svg>